<svg width="42" height="41" viewBox="0 0 42 41" fill="none" xmlns="http://www.w3.org/2000/svg">
<path d="M36.2652 10.4782C39.0737 10.4782 41.3504 8.20073 41.3504 5.39128C41.3504 2.58183 39.0737 0.304321 36.2652 0.304321C33.4567 0.304321 31.1799 2.58183 31.1799 5.39128C31.1799 8.20073 33.4567 10.4782 36.2652 10.4782Z" fill="#999999"/>
<path d="M18.4668 5.39128C17.4802 5.39128 16.514 5.47775 15.5682 5.63035C14.5918 2.54257 11.7034 0.304321 8.2963 0.304321C4.08573 0.304321 0.668457 3.72276 0.668457 7.93476C0.668457 10.2697 1.7211 12.3604 3.3738 13.7593C1.66008 16.4961 0.668457 19.7263 0.668457 23.1956C0.668457 33.0287 8.63702 41 18.4668 41C28.2965 41 36.2651 33.0287 36.2651 23.1956C36.2651 13.3625 28.2965 5.39128 18.4668 5.39128ZM25.4081 28.2826C24.5284 26.7616 22.8909 25.7391 21.0094 25.7391C19.1278 25.7391 17.4904 26.7616 16.6106 28.2826C16.1784 27.5348 15.9242 26.665 15.9242 25.7391C15.9242 22.9311 18.2023 20.6522 21.0094 20.6522C23.8164 20.6522 26.0946 22.9311 26.0946 25.7391C26.0946 26.665 25.8404 27.5348 25.4081 28.2826Z" fill="#999999"/>
</svg>
