<svg width="134" height="47" viewBox="0 0 134 47" fill="none" xmlns="http://www.w3.org/2000/svg">
<path d="M71.6449 43.7979V19.617L71.9448 15.718H75.1314V43.7979H71.6449ZM58.0173 26.084V25.6903C58.0173 24.1407 58.1985 22.7349 58.5609 21.4727C58.9233 20.1981 59.4544 19.1046 60.1543 18.1924C60.8541 17.2801 61.6976 16.5803 62.6848 16.0929C63.6845 15.5931 64.8217 15.3431 66.0964 15.3431C67.371 15.3431 68.4895 15.5681 69.4517 16.0179C70.4265 16.4553 71.2512 17.0989 71.926 17.9487C72.6134 18.7859 73.157 19.7982 73.5569 20.9853C73.9567 22.1725 74.2317 23.5159 74.3816 25.0155V26.74C74.2442 28.2271 73.9755 29.5643 73.5756 30.7514C73.1757 31.9386 72.6321 32.9508 71.9448 33.7881C71.27 34.6254 70.439 35.2689 69.4517 35.7188C68.477 36.1562 67.346 36.3749 66.0589 36.3749C64.8092 36.3749 63.6845 36.1187 62.6848 35.6064C61.6976 35.094 60.8541 34.3754 60.1543 33.4507C59.4669 32.5259 58.9358 31.4387 58.5609 30.1891C58.1985 28.9269 58.0173 27.5586 58.0173 26.084ZM61.5039 25.6903V26.084C61.5039 27.0962 61.6101 28.0522 61.8225 28.9519C62.035 29.8392 62.3599 30.6265 62.7973 31.3138C63.2472 32.0011 63.8095 32.5447 64.4843 32.9446C65.1716 33.332 65.9839 33.5257 66.9212 33.5257C68.0708 33.5257 69.0268 33.2757 69.7891 32.7759C70.5639 32.276 71.1825 31.6199 71.6449 30.8077C72.1072 29.9829 72.4634 29.1019 72.7133 28.1646V23.6471C72.5759 22.9598 72.3572 22.2912 72.0573 21.6414C71.7698 20.9916 71.3949 20.4105 70.9326 19.8981C70.4702 19.3733 69.9078 18.9609 69.2455 18.661C68.5957 18.3486 67.8334 18.1924 66.9586 18.1924C66.0089 18.1924 65.1904 18.3923 64.5031 18.7922C63.8158 19.1921 63.2472 19.7419 62.7973 20.4417C62.3599 21.1291 62.035 21.9226 61.8225 22.8223C61.6101 23.7221 61.5039 24.6781 61.5039 25.6903ZM84.1665 18.9047V36H80.6987V15.718H84.0727L84.1665 18.9047ZM90.5022 15.6056L90.4835 18.8297C90.1961 18.7672 89.9211 18.7297 89.6587 18.7172C89.4088 18.6922 89.1214 18.6797 88.7964 18.6797C87.9967 18.6797 87.2906 18.8047 86.6783 19.0546C86.0659 19.3046 85.5473 19.6545 85.1224 20.1043C84.6976 20.5542 84.3602 21.0916 84.1102 21.7164C83.8728 22.3287 83.7166 23.0035 83.6416 23.7408L82.6669 24.3032C82.6669 23.0785 82.7856 21.9288 83.023 20.8541C83.273 19.7794 83.6541 18.8297 84.1665 18.0049C84.6788 17.1676 85.3286 16.5178 86.1159 16.0554C86.9157 15.5806 87.8654 15.3431 88.9651 15.3431C89.2151 15.3431 89.5025 15.3744 89.8274 15.4369C90.1523 15.4868 90.3773 15.5431 90.5022 15.6056ZM101.449 33.5257C102.274 33.5257 103.036 33.357 103.736 33.0196C104.436 32.6822 105.011 32.2198 105.461 31.6324C105.911 31.0326 106.167 30.3515 106.229 29.5892H109.528C109.466 30.7889 109.06 31.9074 108.31 32.9446C107.573 33.9693 106.604 34.8003 105.404 35.4377C104.205 36.0625 102.886 36.3749 101.449 36.3749C99.9247 36.3749 98.5938 36.1062 97.4566 35.5689C96.3319 35.0315 95.3946 34.2942 94.6449 33.357C93.9076 32.4197 93.3515 31.345 92.9766 30.1328C92.6142 28.9082 92.433 27.6148 92.433 26.2527V25.4654C92.433 24.1032 92.6142 22.8161 92.9766 21.6039C93.3515 20.3793 93.9076 19.2983 94.6449 18.3611C95.3946 17.4238 96.3319 16.6865 97.4566 16.1492C98.5938 15.6118 99.9247 15.3431 101.449 15.3431C103.036 15.3431 104.423 15.668 105.611 16.3179C106.798 16.9552 107.729 17.83 108.404 18.9422C109.091 20.0419 109.466 21.2915 109.528 22.6911H106.229C106.167 21.8539 105.929 21.0978 105.517 20.423C105.117 19.7482 104.567 19.2108 103.867 18.8109C103.18 18.3985 102.374 18.1924 101.449 18.1924C100.387 18.1924 99.4935 18.4048 98.7687 18.8297C98.0564 19.2421 97.4878 19.8044 97.0629 20.5167C96.6506 21.2165 96.3506 21.9976 96.1632 22.8598C95.9882 23.7096 95.9008 24.5781 95.9008 25.4654V26.2527C95.9008 27.1399 95.9882 28.0147 96.1632 28.8769C96.3381 29.7392 96.6318 30.5202 97.0442 31.2201C97.4691 31.9199 98.0377 32.4822 98.75 32.9071C99.4748 33.3195 100.375 33.5257 101.449 33.5257ZM112.509 26.084V25.6528C112.509 24.1907 112.721 22.8348 113.146 21.5852C113.571 20.323 114.183 19.2296 114.983 18.3048C115.783 17.3676 116.751 16.6428 117.889 16.1304C119.026 15.6056 120.3 15.3431 121.712 15.3431C123.137 15.3431 124.418 15.6056 125.555 16.1304C126.705 16.6428 127.68 17.3676 128.479 18.3048C129.292 19.2296 129.91 20.323 130.335 21.5852C130.76 22.8348 130.972 24.1907 130.972 25.6528V26.084C130.972 27.5461 130.76 28.9019 130.335 30.1516C129.91 31.4013 129.292 32.4947 128.479 33.432C127.68 34.3567 126.711 35.0815 125.574 35.6064C124.449 36.1187 123.175 36.3749 121.75 36.3749C120.325 36.3749 119.044 36.1187 117.907 35.6064C116.77 35.0815 115.795 34.3567 114.983 33.432C114.183 32.4947 113.571 31.4013 113.146 30.1516C112.721 28.9019 112.509 27.5461 112.509 26.084ZM115.977 25.6528V26.084C115.977 27.0962 116.095 28.0522 116.333 28.9519C116.57 29.8392 116.926 30.6265 117.401 31.3138C117.889 32.0011 118.495 32.5447 119.219 32.9446C119.944 33.332 120.788 33.5257 121.75 33.5257C122.7 33.5257 123.531 33.332 124.243 32.9446C124.968 32.5447 125.568 32.0011 126.043 31.3138C126.517 30.6265 126.874 29.8392 127.111 28.9519C127.361 28.0522 127.486 27.0962 127.486 26.084V25.6528C127.486 24.6531 127.361 23.7096 127.111 22.8223C126.874 21.9226 126.511 21.1291 126.024 20.4417C125.549 19.7419 124.949 19.1921 124.224 18.7922C123.512 18.3923 122.675 18.1924 121.712 18.1924C120.763 18.1924 119.925 18.3923 119.201 18.7922C118.488 19.1921 117.889 19.7419 117.401 20.4417C116.926 21.1291 116.57 21.9226 116.333 22.8223C116.095 23.7096 115.977 24.6531 115.977 25.6528Z" fill="#999999"/>
<path d="M15.5545 5.51587H0.298828V20.7768H15.5545V5.51587Z" fill="#999999"/>
<path d="M25.7249 5.51587H20.6396V15.6898H25.7249V5.51587Z" fill="#999999"/>
<path d="M40.9808 5.51587H30.8103V20.7768H40.9808V5.51587Z" fill="#999999"/>
<path d="M30.8101 20.7766H15.5544V46.2114H30.8101V20.7766Z" fill="#999999"/>
<path d="M10.4693 36.0374H0.298828V46.2113H10.4693V36.0374Z" fill="#999999"/>
<path d="M10.4693 25.8636H0.298828V30.9505H10.4693V25.8636Z" fill="#999999"/>
<path opacity="0.8902" d="M40.9807 36.0374H35.8955V46.2113H40.9807V36.0374Z" fill="#999999"/>
<path d="M40.9807 25.8636H35.8955V30.9505H40.9807V25.8636Z" fill="#999999"/>
</svg>
