<svg width="157" height="42" viewBox="0 0 157 42" fill="none" xmlns="http://www.w3.org/2000/svg">
<path d="M65.3485 30.4615H60.744L60.7743 28.0836H65.3485C66.9237 28.0836 68.2364 27.7554 69.2866 27.099C70.3367 26.4326 71.1243 25.5036 71.6494 24.3121C72.1846 23.1105 72.4522 21.7069 72.4522 20.1014V18.7533C72.4522 17.4911 72.3007 16.3703 71.9978 15.3908C71.6949 14.4013 71.2506 13.5682 70.6649 12.8917C70.0792 12.205 69.3623 11.685 68.5141 11.3316C67.676 10.9782 66.7117 10.8015 65.6211 10.8015H60.6531V8.40833H65.6211C67.0651 8.40833 68.3828 8.65067 69.5743 9.13536C70.7659 9.60995 71.7908 10.3016 72.6491 11.2104C73.5175 12.1091 74.1839 13.1997 74.6484 14.4821C75.1129 15.7544 75.3451 17.1882 75.3451 18.7836V20.1014C75.3451 21.6968 75.1129 23.1357 74.6484 24.4181C74.1839 25.6904 73.5124 26.7759 72.6339 27.6746C71.7655 28.5733 70.7154 29.265 69.4835 29.7497C68.2617 30.2243 66.8833 30.4615 65.3485 30.4615ZM62.3041 8.40833V30.4615H59.3808V8.40833H62.3041ZM82.1156 16.648V30.4615H79.3135V14.0731H82.0399L82.1156 16.648ZM87.2351 13.9822L87.22 16.5874C86.9877 16.5369 86.7656 16.5066 86.5535 16.4965C86.3516 16.4763 86.1193 16.4662 85.8568 16.4662C85.2105 16.4662 84.64 16.5672 84.1452 16.7692C83.6504 16.9711 83.2314 17.2538 82.8881 17.6174C82.5448 17.9809 82.2721 18.4151 82.0702 18.92C81.8783 19.4147 81.7521 19.96 81.6915 20.5558L80.9039 21.0102C80.9039 20.0206 80.9998 19.0916 81.1917 18.2232C81.3936 17.3548 81.7016 16.5874 82.1156 15.921C82.5296 15.2444 83.0547 14.7193 83.6908 14.3457C84.3371 13.962 85.1045 13.7702 85.9931 13.7702C86.195 13.7702 86.4273 13.7954 86.6898 13.8459C86.9524 13.8863 87.1341 13.9317 87.2351 13.9822ZM88.78 22.4491V22.1007C88.78 20.9193 88.9517 19.8237 89.295 18.8139C89.6383 17.7941 90.1331 16.9105 90.7794 16.1633C91.4256 15.406 92.2082 14.8203 93.1271 14.4063C94.046 13.9822 95.0759 13.7702 96.2169 13.7702C97.3681 13.7702 98.4031 13.9822 99.322 14.4063C100.251 14.8203 101.039 15.406 101.685 16.1633C102.341 16.9105 102.841 17.7941 103.184 18.8139C103.528 19.8237 103.699 20.9193 103.699 22.1007V22.4491C103.699 23.6305 103.528 24.7261 103.184 25.7359C102.841 26.7456 102.341 27.6292 101.685 28.3865C101.039 29.1337 100.256 29.7194 99.3371 30.1435C98.4283 30.5575 97.3984 30.7645 96.2472 30.7645C95.0961 30.7645 94.0611 30.5575 93.1422 30.1435C92.2233 29.7194 91.4357 29.1337 90.7794 28.3865C90.1331 27.6292 89.6383 26.7456 89.295 25.7359C88.9517 24.7261 88.78 23.6305 88.78 22.4491ZM91.5821 22.1007V22.4491C91.5821 23.267 91.6781 24.0395 91.8699 24.7665C92.0618 25.4834 92.3496 26.1196 92.7333 26.6749C93.1271 27.2303 93.6168 27.6696 94.2025 27.9927C94.7881 28.3057 95.4697 28.4622 96.2472 28.4622C97.0147 28.4622 97.6861 28.3057 98.2617 27.9927C98.8474 27.6696 99.3321 27.2303 99.7158 26.6749C100.099 26.1196 100.387 25.4834 100.579 24.7665C100.781 24.0395 100.882 23.267 100.882 22.4491V22.1007C100.882 21.2929 100.781 20.5305 100.579 19.8136C100.387 19.0866 100.094 18.4454 99.7006 17.89C99.3169 17.3245 98.8322 16.8802 98.2466 16.5571C97.671 16.234 96.9945 16.0724 96.2169 16.0724C95.4495 16.0724 94.773 16.234 94.1873 16.5571C93.6118 16.8802 93.1271 17.3245 92.7333 17.89C92.3496 18.4454 92.0618 19.0866 91.8699 19.8136C91.6781 20.5305 91.5821 21.2929 91.5821 22.1007ZM110.015 17.2236V36.7625H107.198V14.0731H109.773L110.015 17.2236ZM121.057 22.131V22.4491C121.057 23.6406 120.916 24.7463 120.633 25.7662C120.35 26.7759 119.936 27.6544 119.391 28.4016C118.856 29.1489 118.194 29.7295 117.407 30.1435C116.619 30.5575 115.715 30.7645 114.696 30.7645C113.656 30.7645 112.737 30.5928 111.939 30.2495C111.141 29.9062 110.465 29.4063 109.909 28.75C109.354 28.0937 108.91 27.306 108.576 26.3872C108.253 25.4683 108.031 24.4333 107.91 23.2821V21.5857C108.031 20.374 108.258 19.2885 108.592 18.3292C108.925 17.37 109.364 16.5521 109.909 15.8755C110.465 15.1889 111.136 14.6689 111.924 14.3154C112.711 13.9519 113.62 13.7702 114.65 13.7702C115.68 13.7702 116.594 13.9721 117.392 14.376C118.189 14.7698 118.861 15.3353 119.406 16.0724C119.951 16.8096 120.36 17.6931 120.633 18.7231C120.916 19.7429 121.057 20.8789 121.057 22.131ZM118.24 22.4491V22.131C118.24 21.3131 118.154 20.5457 117.982 19.8287C117.811 19.1017 117.543 18.4656 117.18 17.9203C116.826 17.3649 116.372 16.9307 115.816 16.6177C115.261 16.2946 114.6 16.133 113.832 16.133C113.125 16.133 112.509 16.2542 111.984 16.4965C111.469 16.7389 111.03 17.067 110.667 17.481C110.303 17.885 110.005 18.3494 109.773 18.8745C109.551 19.3895 109.384 19.9247 109.273 20.48V24.403C109.475 25.1098 109.758 25.7762 110.121 26.4023C110.485 27.0183 110.97 27.5181 111.575 27.9018C112.181 28.2754 112.944 28.4622 113.863 28.4622C114.62 28.4622 115.271 28.3057 115.816 27.9927C116.372 27.6696 116.826 27.2303 117.18 26.6749C117.543 26.1196 117.811 25.4834 117.982 24.7665C118.154 24.0395 118.24 23.267 118.24 22.4491ZM127.676 7.19661V30.4615H124.859V7.19661H127.676ZM138.975 30.7645C137.834 30.7645 136.799 30.5726 135.87 30.1889C134.951 29.7951 134.159 29.2448 133.492 28.5379C132.836 27.8311 132.331 26.993 131.978 26.0236C131.624 25.0543 131.448 23.994 131.448 22.8429V22.2067C131.448 20.8738 131.644 19.6874 132.038 18.6473C132.432 17.5972 132.967 16.7086 133.644 15.9815C134.32 15.2545 135.088 14.7042 135.946 14.3306C136.804 13.957 137.693 13.7702 138.612 13.7702C139.783 13.7702 140.793 13.9721 141.641 14.376C142.499 14.7799 143.201 15.3454 143.746 16.0724C144.292 16.7894 144.696 17.6376 144.958 18.617C145.221 19.5864 145.352 20.6467 145.352 21.7978V23.0549H133.114V20.7678H142.55V20.5558C142.51 19.8287 142.358 19.1219 142.096 18.4353C141.843 17.7486 141.439 17.1832 140.884 16.7389C140.328 16.2946 139.571 16.0724 138.612 16.0724C137.976 16.0724 137.39 16.2087 136.855 16.4814C136.32 16.7439 135.86 17.1377 135.477 17.6628C135.093 18.1879 134.795 18.8291 134.583 19.5864C134.371 20.3437 134.265 21.2172 134.265 22.2067V22.8429C134.265 23.6204 134.371 24.3525 134.583 25.0391C134.805 25.7157 135.123 26.3114 135.537 26.8264C135.961 27.3414 136.471 27.7453 137.067 28.0381C137.673 28.3309 138.359 28.4774 139.127 28.4774C140.116 28.4774 140.954 28.2754 141.641 27.8715C142.328 27.4676 142.929 26.9274 143.444 26.2508L145.14 27.5989C144.787 28.134 144.337 28.644 143.792 29.1287C143.247 29.6133 142.575 30.0072 141.777 30.3101C140.99 30.613 140.056 30.7645 138.975 30.7645ZM155.485 14.0731V16.2239H146.624V14.0731H155.485ZM149.623 10.0896H152.425V26.4023C152.425 26.9577 152.511 27.3767 152.683 27.6595C152.855 27.9422 153.077 28.129 153.349 28.2199C153.622 28.3108 153.915 28.3562 154.228 28.3562C154.46 28.3562 154.702 28.336 154.955 28.2956C155.217 28.2451 155.414 28.2047 155.546 28.1744L155.561 30.4615C155.339 30.5322 155.046 30.5979 154.682 30.6585C154.329 30.7291 153.9 30.7645 153.395 30.7645C152.708 30.7645 152.077 30.6282 151.501 30.3555C150.926 30.0829 150.466 29.6285 150.123 28.9923C149.79 28.3461 149.623 27.4777 149.623 26.3872V10.0896Z" fill="#999999"/>
<path d="M4.27014 12.8337C15.8187 -7.21399 36.3935 -1.02316 29.9302 19.752C23.4669 40.5271 42.4501 20.6829 41.5347 32.7186C40.6194 44.7544 4.6973 43.8286 16.2408 31.7826C27.7792 19.7367 29.1064 15.601 17.2375 23.3535C5.36855 31.1061 -4.57308 28.1811 4.27014 12.8337Z" fill="#999999"/>
<path d="M4.27014 12.8337C15.8187 -7.21399 36.3935 -1.02316 29.9302 19.752C23.4669 40.5271 42.4501 20.6829 41.5347 32.7186C40.6194 44.7544 4.6973 43.8286 16.2408 31.7826C27.7792 19.7367 29.1064 15.601 17.2375 23.3535C5.36855 31.1061 -4.57308 28.1811 4.27014 12.8337Z" fill="#999999"/>
</svg>
