<svg width="1288" height="328" viewBox="0 0 1288 328" fill="none" xmlns="http://www.w3.org/2000/svg">
<g filter="url(#filter0_d_11_1584)">
<mask id="mask0_11_1584" style="mask-type:alpha" maskUnits="userSpaceOnUse" x="4" y="0" width="1280" height="320">
<rect x="4" width="1280" height="320" rx="16" fill="#C4C4C4"/>
</mask>
<g mask="url(#mask0_11_1584)">
<g filter="url(#filter1_f_11_1584)">
<circle cx="398.5" cy="248.5" r="496.5" fill="#FF3939"/>
</g>
<g filter="url(#filter2_f_11_1584)">
<circle cx="1157.5" cy="144.5" r="245.5" fill="#39FFA0"/>
</g>
<g filter="url(#filter3_f_11_1584)">
<circle cx="794.5" cy="381.5" r="496.5" fill="#FF8139"/>
<circle cx="794.5" cy="381.5" r="496.5" fill="#FF8139"/>
</g>
<g filter="url(#filter4_f_11_1584)">
<circle cx="60" cy="81" r="163" fill="#FF3998"/>
</g>
</g>
<path d="M71.196 193V163.909H89.2358V167.688H75.5852V176.551H87.9432V180.315H75.5852V193H71.196ZM94.0192 193V171.182H98.1243V174.648H98.3516C98.7493 173.473 99.45 172.55 100.454 171.878C101.467 171.196 102.613 170.855 103.891 170.855C104.156 170.855 104.469 170.865 104.829 170.884C105.198 170.902 105.487 170.926 105.695 170.955V175.017C105.525 174.97 105.222 174.918 104.786 174.861C104.351 174.795 103.915 174.761 103.479 174.761C102.476 174.761 101.581 174.974 100.795 175.401C100.018 175.817 99.4027 176.4 98.9482 177.148C98.4936 177.886 98.2663 178.729 98.2663 179.676V193H94.0192ZM117.993 193.44C115.843 193.44 113.992 192.981 112.439 192.062C110.895 191.134 109.702 189.832 108.859 188.156C108.026 186.471 107.609 184.496 107.609 182.233C107.609 179.998 108.026 178.028 108.859 176.324C109.702 174.619 110.876 173.289 112.382 172.332C113.897 171.376 115.668 170.898 117.695 170.898C118.926 170.898 120.119 171.101 121.274 171.509C122.429 171.916 123.466 172.555 124.385 173.426C125.304 174.297 126.028 175.429 126.558 176.821C127.089 178.204 127.354 179.884 127.354 181.864V183.369H110.01V180.188H123.192C123.192 179.07 122.964 178.08 122.51 177.219C122.055 176.348 121.416 175.661 120.592 175.159C119.778 174.657 118.821 174.406 117.723 174.406C116.53 174.406 115.488 174.7 114.598 175.287C113.717 175.865 113.036 176.622 112.553 177.56C112.079 178.488 111.842 179.496 111.842 180.585V183.071C111.842 184.529 112.098 185.77 112.609 186.793C113.13 187.815 113.855 188.597 114.783 189.136C115.711 189.667 116.795 189.932 118.036 189.932C118.84 189.932 119.574 189.818 120.237 189.591C120.9 189.354 121.473 189.004 121.956 188.54C122.439 188.076 122.808 187.503 123.064 186.821L127.084 187.545C126.762 188.729 126.184 189.766 125.351 190.656C124.527 191.537 123.49 192.223 122.24 192.716C121 193.199 119.584 193.44 117.993 193.44ZM141.469 193.44C139.32 193.44 137.469 192.981 135.915 192.062C134.372 191.134 133.179 189.832 132.336 188.156C131.503 186.471 131.086 184.496 131.086 182.233C131.086 179.998 131.503 178.028 132.336 176.324C133.179 174.619 134.353 173.289 135.859 172.332C137.374 171.376 139.145 170.898 141.171 170.898C142.402 170.898 143.595 171.101 144.751 171.509C145.906 171.916 146.943 172.555 147.862 173.426C148.78 174.297 149.504 175.429 150.035 176.821C150.565 178.204 150.83 179.884 150.83 181.864V183.369H133.487V180.188H146.668C146.668 179.07 146.441 178.08 145.987 177.219C145.532 176.348 144.893 175.661 144.069 175.159C143.254 174.657 142.298 174.406 141.2 174.406C140.006 174.406 138.965 174.7 138.075 175.287C137.194 175.865 136.512 176.622 136.029 177.56C135.556 178.488 135.319 179.496 135.319 180.585V183.071C135.319 184.529 135.575 185.77 136.086 186.793C136.607 187.815 137.331 188.597 138.259 189.136C139.187 189.667 140.272 189.932 141.512 189.932C142.317 189.932 143.051 189.818 143.714 189.591C144.377 189.354 144.95 189.004 145.433 188.54C145.915 188.076 146.285 187.503 146.54 186.821L150.56 187.545C150.238 188.729 149.661 189.766 148.827 190.656C148.004 191.537 146.967 192.223 145.717 192.716C144.476 193.199 143.06 193.44 141.469 193.44ZM189.95 163.909V193H185.915L171.129 171.665H170.859V193H166.469V163.909H170.532L185.333 185.273H185.603V163.909H189.95ZM196.352 193V163.909H214.392V167.688H200.741V176.551H213.099V180.315H200.741V193H196.352ZM218.355 167.688V163.909H240.869V167.688H231.793V193H227.418V167.688H218.355ZM266.473 171.182V174.591H254.143V171.182H266.473ZM257.524 193V168.653C257.524 167.29 257.822 166.158 258.419 165.259C259.016 164.349 259.806 163.672 260.791 163.227C261.776 162.773 262.846 162.545 264.001 162.545C264.854 162.545 265.583 162.616 266.189 162.759C266.795 162.891 267.245 163.014 267.538 163.128L266.544 166.565C266.345 166.509 266.089 166.442 265.777 166.366C265.464 166.281 265.086 166.239 264.641 166.239C263.608 166.239 262.87 166.494 262.425 167.006C261.989 167.517 261.771 168.256 261.771 169.222V193H257.524ZM279.186 193.44C277.141 193.44 275.356 192.972 273.831 192.034C272.306 191.097 271.123 189.785 270.28 188.099C269.437 186.414 269.016 184.444 269.016 182.19C269.016 179.927 269.437 177.948 270.28 176.253C271.123 174.558 272.306 173.241 273.831 172.304C275.356 171.366 277.141 170.898 279.186 170.898C281.232 170.898 283.017 171.366 284.541 172.304C286.066 173.241 287.25 174.558 288.092 176.253C288.935 177.948 289.357 179.927 289.357 182.19C289.357 184.444 288.935 186.414 288.092 188.099C287.25 189.785 286.066 191.097 284.541 192.034C283.017 192.972 281.232 193.44 279.186 193.44ZM279.2 189.875C280.526 189.875 281.625 189.525 282.496 188.824C283.367 188.123 284.011 187.19 284.428 186.026C284.854 184.861 285.067 183.578 285.067 182.176C285.067 180.784 284.854 179.506 284.428 178.341C284.011 177.167 283.367 176.224 282.496 175.514C281.625 174.804 280.526 174.449 279.2 174.449C277.865 174.449 276.757 174.804 275.876 175.514C275.005 176.224 274.357 177.167 273.93 178.341C273.514 179.506 273.305 180.784 273.305 182.176C273.305 183.578 273.514 184.861 273.93 186.026C274.357 187.19 275.005 188.123 275.876 188.824C276.757 189.525 277.865 189.875 279.2 189.875ZM294.097 193V171.182H298.202V174.648H298.43C298.827 173.473 299.528 172.55 300.532 171.878C301.545 171.196 302.691 170.855 303.969 170.855C304.235 170.855 304.547 170.865 304.907 170.884C305.276 170.902 305.565 170.926 305.773 170.955V175.017C305.603 174.97 305.3 174.918 304.864 174.861C304.429 174.795 303.993 174.761 303.558 174.761C302.554 174.761 301.659 174.974 300.873 175.401C300.096 175.817 299.481 176.4 299.026 177.148C298.572 177.886 298.344 178.729 298.344 179.676V193H294.097ZM329.438 193.44C327.289 193.44 325.437 192.981 323.884 192.062C322.341 191.134 321.147 189.832 320.305 188.156C319.471 186.471 319.055 184.496 319.055 182.233C319.055 179.998 319.471 178.028 320.305 176.324C321.147 174.619 322.322 173.289 323.827 172.332C325.343 171.376 327.113 170.898 329.14 170.898C330.371 170.898 331.564 171.101 332.719 171.509C333.875 171.916 334.912 172.555 335.83 173.426C336.749 174.297 337.473 175.429 338.004 176.821C338.534 178.204 338.799 179.884 338.799 181.864V183.369H321.455V180.188H334.637C334.637 179.07 334.41 178.08 333.955 177.219C333.501 176.348 332.862 175.661 332.038 175.159C331.223 174.657 330.267 174.406 329.168 174.406C327.975 174.406 326.933 174.7 326.043 175.287C325.163 175.865 324.481 176.622 323.998 177.56C323.524 178.488 323.288 179.496 323.288 180.585V183.071C323.288 184.529 323.543 185.77 324.055 186.793C324.576 187.815 325.3 188.597 326.228 189.136C327.156 189.667 328.24 189.932 329.481 189.932C330.286 189.932 331.02 189.818 331.683 189.591C332.345 189.354 332.918 189.004 333.401 188.54C333.884 188.076 334.254 187.503 334.509 186.821L338.529 187.545C338.207 188.729 337.629 189.766 336.796 190.656C335.972 191.537 334.935 192.223 333.685 192.716C332.445 193.199 331.029 193.44 329.438 193.44ZM349.861 193.483C348.478 193.483 347.228 193.227 346.111 192.716C344.993 192.195 344.108 191.442 343.455 190.457C342.811 189.473 342.489 188.265 342.489 186.835C342.489 185.604 342.725 184.591 343.199 183.795C343.672 183 344.312 182.37 345.116 181.906C345.921 181.442 346.821 181.092 347.815 180.855C348.81 180.618 349.823 180.438 350.855 180.315C352.162 180.164 353.223 180.041 354.037 179.946C354.851 179.842 355.443 179.676 355.812 179.449C356.182 179.222 356.366 178.852 356.366 178.341V178.241C356.366 177.001 356.016 176.04 355.315 175.358C354.624 174.676 353.592 174.335 352.219 174.335C350.789 174.335 349.662 174.652 348.838 175.287C348.024 175.912 347.46 176.608 347.148 177.375L343.156 176.466C343.63 175.14 344.321 174.07 345.23 173.256C346.149 172.432 347.205 171.835 348.398 171.466C349.591 171.087 350.846 170.898 352.162 170.898C353.033 170.898 353.956 171.002 354.932 171.21C355.917 171.409 356.835 171.778 357.688 172.318C358.549 172.858 359.255 173.63 359.804 174.634C360.353 175.628 360.628 176.92 360.628 178.511V193H356.48V190.017H356.31C356.035 190.566 355.623 191.106 355.074 191.636C354.525 192.167 353.819 192.607 352.957 192.957C352.096 193.308 351.063 193.483 349.861 193.483ZM350.784 190.074C351.958 190.074 352.962 189.842 353.795 189.378C354.638 188.914 355.277 188.308 355.713 187.56C356.158 186.802 356.381 185.992 356.381 185.131V182.318C356.229 182.47 355.936 182.612 355.5 182.744C355.074 182.867 354.586 182.976 354.037 183.071C353.488 183.156 352.953 183.237 352.432 183.312C351.911 183.379 351.475 183.436 351.125 183.483C350.301 183.587 349.548 183.762 348.866 184.009C348.194 184.255 347.654 184.61 347.247 185.074C346.849 185.528 346.651 186.134 346.651 186.892C346.651 187.943 347.039 188.739 347.815 189.278C348.592 189.809 349.581 190.074 350.784 190.074ZM366.285 193V171.182H370.39V174.648H370.617C371.015 173.473 371.716 172.55 372.719 171.878C373.733 171.196 374.879 170.855 376.157 170.855C376.422 170.855 376.735 170.865 377.094 170.884C377.464 170.902 377.753 170.926 377.961 170.955V175.017C377.79 174.97 377.487 174.918 377.052 174.861C376.616 174.795 376.181 174.761 375.745 174.761C374.741 174.761 373.846 174.974 373.06 175.401C372.284 175.817 371.668 176.4 371.214 177.148C370.759 177.886 370.532 178.729 370.532 179.676V193H366.285ZM385.884 163.909V193H381.636V163.909H385.884ZM394.282 201.182C393.647 201.182 393.07 201.13 392.549 201.026C392.028 200.931 391.64 200.827 391.384 200.713L392.407 197.233C393.183 197.441 393.875 197.531 394.481 197.503C395.087 197.474 395.622 197.247 396.086 196.821C396.559 196.395 396.976 195.699 397.336 194.733L397.862 193.284L389.879 171.182H394.424L399.95 188.114H400.177L405.702 171.182H410.262L401.271 195.912C400.854 197.048 400.324 198.009 399.68 198.795C399.036 199.591 398.269 200.188 397.379 200.585C396.488 200.983 395.456 201.182 394.282 201.182ZM425.18 193V163.909H429.428V174.719H429.683C429.929 174.264 430.285 173.739 430.749 173.142C431.213 172.545 431.857 172.025 432.68 171.58C433.504 171.125 434.593 170.898 435.947 170.898C437.709 170.898 439.281 171.343 440.663 172.233C442.046 173.123 443.13 174.406 443.916 176.082C444.712 177.759 445.109 179.776 445.109 182.134C445.109 184.491 444.716 186.513 443.93 188.199C443.144 189.875 442.065 191.168 440.692 192.077C439.319 192.976 437.751 193.426 435.99 193.426C434.664 193.426 433.58 193.204 432.737 192.759C431.904 192.313 431.25 191.793 430.777 191.196C430.304 190.599 429.939 190.069 429.683 189.605H429.328V193H425.18ZM429.342 182.091C429.342 183.625 429.565 184.97 430.01 186.125C430.455 187.28 431.099 188.185 431.942 188.838C432.785 189.482 433.817 189.804 435.038 189.804C436.307 189.804 437.368 189.468 438.22 188.795C439.072 188.114 439.716 187.19 440.152 186.026C440.597 184.861 440.82 183.549 440.82 182.091C440.82 180.652 440.602 179.359 440.166 178.213C439.74 177.067 439.096 176.163 438.234 175.5C437.382 174.837 436.317 174.506 435.038 174.506C433.807 174.506 432.766 174.823 431.913 175.457C431.071 176.092 430.431 176.977 429.996 178.114C429.56 179.25 429.342 180.576 429.342 182.091ZM449.879 193V171.182H454.126V193H449.879ZM452.023 167.815C451.285 167.815 450.65 167.569 450.12 167.077C449.599 166.575 449.339 165.978 449.339 165.287C449.339 164.586 449.599 163.99 450.12 163.497C450.65 162.995 451.285 162.744 452.023 162.744C452.762 162.744 453.392 162.995 453.913 163.497C454.443 163.99 454.708 164.586 454.708 165.287C454.708 165.978 454.443 166.575 453.913 167.077C453.392 167.569 452.762 167.815 452.023 167.815ZM459.839 193V171.182H463.945V174.648H464.172C464.57 173.473 465.27 172.55 466.274 171.878C467.287 171.196 468.433 170.855 469.712 170.855C469.977 170.855 470.289 170.865 470.649 170.884C471.018 170.902 471.307 170.926 471.516 170.955V175.017C471.345 174.97 471.042 174.918 470.607 174.861C470.171 174.795 469.735 174.761 469.3 174.761C468.296 174.761 467.401 174.974 466.615 175.401C465.839 175.817 465.223 176.4 464.768 177.148C464.314 177.886 464.087 178.729 464.087 179.676V193H459.839ZM482.577 193.426C480.816 193.426 479.244 192.976 477.862 192.077C476.488 191.168 475.409 189.875 474.623 188.199C473.846 186.513 473.458 184.491 473.458 182.134C473.458 179.776 473.851 177.759 474.637 176.082C475.433 174.406 476.522 173.123 477.904 172.233C479.287 171.343 480.854 170.898 482.606 170.898C483.96 170.898 485.049 171.125 485.873 171.58C486.706 172.025 487.35 172.545 487.805 173.142C488.269 173.739 488.629 174.264 488.884 174.719H489.14V163.909H493.387V193H489.239V189.605H488.884C488.629 190.069 488.259 190.599 487.776 191.196C487.303 191.793 486.649 192.313 485.816 192.759C484.983 193.204 483.903 193.426 482.577 193.426ZM483.515 189.804C484.737 189.804 485.769 189.482 486.612 188.838C487.464 188.185 488.108 187.28 488.543 186.125C488.988 184.97 489.211 183.625 489.211 182.091C489.211 180.576 488.993 179.25 488.558 178.114C488.122 176.977 487.483 176.092 486.64 175.457C485.797 174.823 484.755 174.506 483.515 174.506C482.237 174.506 481.171 174.837 480.319 175.5C479.467 176.163 478.823 177.067 478.387 178.213C477.961 179.359 477.748 180.652 477.748 182.091C477.748 183.549 477.966 184.861 478.401 186.026C478.837 187.19 479.481 188.114 480.333 188.795C481.195 189.468 482.255 189.804 483.515 189.804ZM515.798 176.509L511.949 177.19C511.788 176.698 511.532 176.229 511.182 175.784C510.841 175.339 510.377 174.974 509.79 174.69C509.203 174.406 508.469 174.264 507.588 174.264C506.385 174.264 505.382 174.534 504.577 175.074C503.772 175.604 503.369 176.291 503.369 177.134C503.369 177.863 503.639 178.45 504.179 178.895C504.719 179.34 505.59 179.705 506.793 179.989L510.259 180.784C512.266 181.248 513.762 181.963 514.747 182.929C515.732 183.895 516.224 185.15 516.224 186.693C516.224 188 515.846 189.165 515.088 190.188C514.34 191.201 513.294 191.996 511.949 192.574C510.614 193.152 509.065 193.44 507.304 193.44C504.861 193.44 502.867 192.92 501.324 191.878C499.78 190.827 498.833 189.335 498.483 187.403L502.588 186.778C502.844 187.848 503.369 188.658 504.165 189.207C504.96 189.747 505.997 190.017 507.276 190.017C508.668 190.017 509.78 189.728 510.614 189.151C511.447 188.563 511.864 187.848 511.864 187.006C511.864 186.324 511.608 185.751 511.097 185.287C510.595 184.823 509.823 184.473 508.781 184.236L505.088 183.426C503.052 182.962 501.546 182.223 500.571 181.21C499.605 180.197 499.122 178.914 499.122 177.361C499.122 176.073 499.482 174.946 500.202 173.98C500.921 173.014 501.916 172.261 503.185 171.722C504.454 171.172 505.907 170.898 507.545 170.898C509.903 170.898 511.759 171.409 513.114 172.432C514.468 173.445 515.363 174.804 515.798 176.509Z" fill="#111111"/>
<path d="M77.7159 237.091C77.6307 236.371 77.285 235.812 76.679 235.415C76.0729 235.017 75.3295 234.818 74.4489 234.818C73.8049 234.818 73.2415 234.922 72.7585 235.131C72.2803 235.339 71.9063 235.625 71.6364 235.99C71.3712 236.355 71.2386 236.769 71.2386 237.233C71.2386 237.621 71.331 237.955 71.5156 238.234C71.705 238.509 71.9465 238.739 72.2401 238.923C72.5336 239.103 72.8414 239.252 73.1634 239.371C73.4853 239.484 73.7812 239.577 74.0511 239.648L75.5284 240.045C75.9072 240.145 76.3286 240.282 76.7926 240.457C77.2614 240.633 77.7088 240.872 78.1349 241.175C78.5658 241.473 78.9209 241.857 79.2003 242.325C79.4796 242.794 79.6193 243.369 79.6193 244.051C79.6193 244.837 79.4134 245.547 79.0014 246.182C78.5942 246.816 77.9976 247.321 77.2116 247.695C76.4304 248.069 75.4811 248.256 74.3636 248.256C73.322 248.256 72.42 248.088 71.6577 247.751C70.9001 247.415 70.3035 246.946 69.8679 246.345C69.437 245.744 69.1932 245.045 69.1364 244.25H70.9545C71.0019 244.799 71.1866 245.254 71.5085 245.614C71.8352 245.969 72.2472 246.234 72.7443 246.409C73.2462 246.58 73.786 246.665 74.3636 246.665C75.036 246.665 75.6397 246.556 76.1747 246.338C76.7098 246.116 77.1335 245.808 77.446 245.415C77.7585 245.017 77.9148 244.553 77.9148 244.023C77.9148 243.54 77.7798 243.147 77.5099 242.844C77.2401 242.541 76.8849 242.295 76.4446 242.105C76.0043 241.916 75.5284 241.75 75.017 241.608L73.2273 241.097C72.0909 240.77 71.1913 240.304 70.5284 239.697C69.8655 239.091 69.5341 238.298 69.5341 237.318C69.5341 236.504 69.7543 235.794 70.1946 235.188C70.6397 234.577 71.2363 234.103 71.9844 233.767C72.7372 233.426 73.5777 233.256 74.5057 233.256C75.4432 233.256 76.2765 233.424 77.0057 233.76C77.7348 234.091 78.3125 234.546 78.7386 235.124C79.1695 235.701 79.3968 236.357 79.4205 237.091H77.7159ZM82.288 248V237.091H83.9641V248H82.288ZM83.1403 235.273C82.8136 235.273 82.5318 235.161 82.2951 234.939C82.0631 234.716 81.9471 234.449 81.9471 234.136C81.9471 233.824 82.0631 233.556 82.2951 233.334C82.5318 233.111 82.8136 233 83.1403 233C83.467 233 83.7463 233.111 83.9783 233.334C84.2151 233.556 84.3335 233.824 84.3335 234.136C84.3335 234.449 84.2151 234.716 83.9783 234.939C83.7463 235.161 83.467 235.273 83.1403 235.273ZM91.4375 252.318C90.6278 252.318 89.9318 252.214 89.3494 252.006C88.767 251.802 88.2817 251.532 87.8935 251.196C87.5099 250.865 87.2045 250.509 86.9773 250.131L88.3125 249.193C88.464 249.392 88.6558 249.619 88.8878 249.875C89.1198 250.135 89.437 250.36 89.8395 250.55C90.2467 250.744 90.7794 250.841 91.4375 250.841C92.3182 250.841 93.045 250.628 93.6179 250.202C94.1908 249.776 94.4773 249.108 94.4773 248.199V245.983H94.3352C94.2121 246.182 94.0369 246.428 93.8097 246.722C93.5871 247.01 93.2652 247.268 92.8438 247.496C92.4271 247.718 91.8636 247.83 91.1534 247.83C90.2727 247.83 89.482 247.621 88.7812 247.205C88.0852 246.788 87.5336 246.182 87.1264 245.386C86.724 244.591 86.5227 243.625 86.5227 242.489C86.5227 241.371 86.7192 240.398 87.1122 239.57C87.5052 238.736 88.0521 238.092 88.7528 237.638C89.4536 237.179 90.2633 236.949 91.1818 236.949C91.892 236.949 92.4555 237.067 92.8722 237.304C93.2936 237.536 93.6155 237.801 93.8381 238.099C94.0653 238.393 94.2405 238.634 94.3636 238.824H94.5341V237.091H96.1534V248.312C96.1534 249.25 95.9403 250.012 95.5142 250.599C95.0928 251.191 94.5246 251.625 93.8097 251.899C93.0994 252.179 92.3087 252.318 91.4375 252.318ZM91.3807 246.324C92.053 246.324 92.6212 246.17 93.0852 245.862C93.5492 245.554 93.902 245.112 94.1435 244.534C94.3849 243.956 94.5057 243.265 94.5057 242.46C94.5057 241.674 94.3873 240.981 94.1506 240.379C93.9138 239.778 93.5634 239.307 93.0994 238.966C92.6354 238.625 92.0625 238.455 91.3807 238.455C90.6705 238.455 90.0786 238.634 89.6051 238.994C89.1364 239.354 88.7836 239.837 88.5469 240.443C88.3149 241.049 88.1989 241.722 88.1989 242.46C88.1989 243.218 88.3172 243.888 88.554 244.47C88.7955 245.048 89.1506 245.502 89.6193 245.834C90.0928 246.161 90.6799 246.324 91.3807 246.324ZM100.898 241.438V248H99.2216V237.091H100.841V238.795H100.983C101.239 238.241 101.627 237.796 102.148 237.46C102.669 237.119 103.341 236.949 104.165 236.949C104.903 236.949 105.55 237.1 106.104 237.403C106.658 237.702 107.089 238.156 107.396 238.767C107.704 239.373 107.858 240.14 107.858 241.068V248H106.182V241.182C106.182 240.325 105.959 239.657 105.514 239.179C105.069 238.696 104.458 238.455 103.682 238.455C103.147 238.455 102.669 238.571 102.247 238.803C101.83 239.035 101.501 239.373 101.26 239.818C101.018 240.263 100.898 240.803 100.898 241.438ZM123.421 243.54V237.091H125.097V248H123.421V246.153H123.307C123.051 246.707 122.654 247.179 122.114 247.567C121.574 247.95 120.892 248.142 120.069 248.142C119.387 248.142 118.781 247.993 118.25 247.695C117.72 247.392 117.303 246.937 117 246.331C116.697 245.72 116.546 244.951 116.546 244.023V237.091H118.222V243.909C118.222 244.705 118.444 245.339 118.89 245.812C119.339 246.286 119.912 246.523 120.608 246.523C121.025 246.523 121.449 246.416 121.88 246.203C122.315 245.99 122.68 245.663 122.973 245.223C123.272 244.783 123.421 244.222 123.421 243.54ZM128.167 252.091V237.091H129.786V238.824H129.985C130.108 238.634 130.279 238.393 130.496 238.099C130.719 237.801 131.036 237.536 131.448 237.304C131.865 237.067 132.428 236.949 133.138 236.949C134.057 236.949 134.867 237.179 135.567 237.638C136.268 238.097 136.815 238.748 137.208 239.591C137.601 240.434 137.798 241.428 137.798 242.574C137.798 243.729 137.601 244.731 137.208 245.578C136.815 246.421 136.271 247.074 135.575 247.538C134.879 247.998 134.076 248.227 133.167 248.227C132.466 248.227 131.905 248.111 131.484 247.879C131.062 247.643 130.738 247.375 130.511 247.077C130.283 246.774 130.108 246.523 129.985 246.324H129.843V252.091H128.167ZM129.815 242.545C129.815 243.369 129.935 244.096 130.177 244.726C130.418 245.351 130.771 245.841 131.235 246.196C131.699 246.546 132.267 246.722 132.94 246.722C133.64 246.722 134.225 246.537 134.694 246.168C135.167 245.794 135.522 245.292 135.759 244.662C136.001 244.027 136.121 243.322 136.121 242.545C136.121 241.778 136.003 241.087 135.766 240.472C135.534 239.851 135.182 239.361 134.708 239.001C134.239 238.637 133.65 238.455 132.94 238.455C132.258 238.455 131.685 238.627 131.221 238.973C130.757 239.314 130.406 239.792 130.17 240.408C129.933 241.018 129.815 241.731 129.815 242.545ZM150.724 237.091V238.511H145.07V237.091H150.724ZM146.718 234.477H148.394V244.875C148.394 245.348 148.463 245.704 148.6 245.94C148.742 246.172 148.922 246.329 149.14 246.409C149.362 246.485 149.597 246.523 149.843 246.523C150.028 246.523 150.179 246.513 150.298 246.494C150.416 246.471 150.511 246.452 150.582 246.438L150.923 247.943C150.809 247.986 150.65 248.028 150.447 248.071C150.243 248.118 149.985 248.142 149.673 248.142C149.199 248.142 148.735 248.04 148.281 247.837C147.831 247.633 147.457 247.323 147.158 246.906C146.865 246.49 146.718 245.964 146.718 245.33V234.477ZM157.56 248.227C156.575 248.227 155.711 247.993 154.967 247.524C154.229 247.055 153.651 246.4 153.234 245.557C152.822 244.714 152.616 243.729 152.616 242.602C152.616 241.466 152.822 240.474 153.234 239.626C153.651 238.779 154.229 238.121 154.967 237.652C155.711 237.183 156.575 236.949 157.56 236.949C158.545 236.949 159.406 237.183 160.145 237.652C160.888 238.121 161.466 238.779 161.878 239.626C162.295 240.474 162.503 241.466 162.503 242.602C162.503 243.729 162.295 244.714 161.878 245.557C161.466 246.4 160.888 247.055 160.145 247.524C159.406 247.993 158.545 248.227 157.56 248.227ZM157.56 246.722C158.308 246.722 158.923 246.53 159.406 246.146C159.889 245.763 160.247 245.259 160.479 244.634C160.711 244.009 160.827 243.331 160.827 242.602C160.827 241.873 160.711 241.194 160.479 240.564C160.247 239.934 159.889 239.425 159.406 239.037C158.923 238.649 158.308 238.455 157.56 238.455C156.812 238.455 156.196 238.649 155.713 239.037C155.23 239.425 154.873 239.934 154.641 240.564C154.409 241.194 154.293 241.873 154.293 242.602C154.293 243.331 154.409 244.009 154.641 244.634C154.873 245.259 155.23 245.763 155.713 246.146C156.196 246.53 156.812 246.722 157.56 246.722ZM169.181 248.227C168.272 248.227 167.469 247.998 166.773 247.538C166.077 247.074 165.533 246.421 165.14 245.578C164.747 244.731 164.55 243.729 164.55 242.574C164.55 241.428 164.747 240.434 165.14 239.591C165.533 238.748 166.079 238.097 166.78 237.638C167.481 237.179 168.291 236.949 169.209 236.949C169.919 236.949 170.48 237.067 170.892 237.304C171.309 237.536 171.626 237.801 171.844 238.099C172.067 238.393 172.239 238.634 172.363 238.824H172.505V233.455H174.181V248H172.561V246.324H172.363C172.239 246.523 172.064 246.774 171.837 247.077C171.61 247.375 171.285 247.643 170.864 247.879C170.443 248.111 169.882 248.227 169.181 248.227ZM169.408 246.722C170.08 246.722 170.649 246.546 171.113 246.196C171.577 245.841 171.929 245.351 172.171 244.726C172.412 244.096 172.533 243.369 172.533 242.545C172.533 241.731 172.415 241.018 172.178 240.408C171.941 239.792 171.591 239.314 171.127 238.973C170.663 238.627 170.09 238.455 169.408 238.455C168.698 238.455 168.106 238.637 167.632 239.001C167.164 239.361 166.811 239.851 166.574 240.472C166.342 241.087 166.226 241.778 166.226 242.545C166.226 243.322 166.345 244.027 166.581 244.662C166.823 245.292 167.178 245.794 167.647 246.168C168.12 246.537 168.707 246.722 169.408 246.722ZM180.694 248.256C180.002 248.256 179.375 248.125 178.811 247.865C178.248 247.6 177.801 247.219 177.469 246.722C177.138 246.22 176.972 245.614 176.972 244.903C176.972 244.278 177.095 243.772 177.341 243.384C177.587 242.991 177.917 242.683 178.328 242.46C178.74 242.238 179.195 242.072 179.692 241.963C180.194 241.849 180.698 241.759 181.205 241.693C181.868 241.608 182.405 241.544 182.817 241.501C183.234 241.454 183.537 241.376 183.726 241.267C183.92 241.158 184.017 240.969 184.017 240.699V240.642C184.017 239.941 183.826 239.397 183.442 239.009C183.063 238.62 182.488 238.426 181.716 238.426C180.916 238.426 180.289 238.601 179.834 238.952C179.38 239.302 179.06 239.676 178.875 240.074L177.284 239.506C177.569 238.843 177.947 238.327 178.421 237.957C178.899 237.583 179.42 237.323 179.983 237.176C180.551 237.025 181.11 236.949 181.659 236.949C182.01 236.949 182.412 236.991 182.867 237.077C183.326 237.157 183.769 237.325 184.195 237.581C184.626 237.837 184.983 238.223 185.267 238.739C185.551 239.255 185.694 239.946 185.694 240.812V248H184.017V246.523H183.932C183.819 246.759 183.629 247.013 183.364 247.283C183.099 247.553 182.746 247.782 182.306 247.972C181.865 248.161 181.328 248.256 180.694 248.256ZM180.949 246.75C181.612 246.75 182.171 246.62 182.625 246.359C183.085 246.099 183.43 245.763 183.662 245.351C183.899 244.939 184.017 244.506 184.017 244.051V242.517C183.946 242.602 183.79 242.68 183.549 242.751C183.312 242.818 183.037 242.877 182.725 242.929C182.417 242.976 182.116 243.019 181.823 243.057C181.534 243.09 181.3 243.118 181.12 243.142C180.684 243.199 180.277 243.291 179.898 243.419C179.524 243.542 179.221 243.729 178.989 243.98C178.762 244.226 178.648 244.562 178.648 244.989C178.648 245.571 178.864 246.011 179.294 246.31C179.73 246.603 180.282 246.75 180.949 246.75ZM189.442 252.091C189.158 252.091 188.904 252.067 188.682 252.02C188.459 251.977 188.305 251.935 188.22 251.892L188.646 250.415C189.054 250.519 189.413 250.557 189.726 250.528C190.038 250.5 190.315 250.36 190.557 250.109C190.803 249.863 191.028 249.463 191.232 248.909L191.544 248.057L187.51 237.091H189.328L192.339 245.784H192.453L195.464 237.091H197.283L192.652 249.591C192.444 250.154 192.186 250.621 191.878 250.99C191.57 251.364 191.213 251.641 190.805 251.821C190.403 252.001 189.948 252.091 189.442 252.091ZM208.33 248.256C207.639 248.256 207.012 248.125 206.448 247.865C205.885 247.6 205.437 247.219 205.106 246.722C204.774 246.22 204.609 245.614 204.609 244.903C204.609 244.278 204.732 243.772 204.978 243.384C205.224 242.991 205.553 242.683 205.965 242.46C206.377 242.238 206.832 242.072 207.329 241.963C207.831 241.849 208.335 241.759 208.842 241.693C209.504 241.608 210.042 241.544 210.454 241.501C210.871 241.454 211.174 241.376 211.363 241.267C211.557 241.158 211.654 240.969 211.654 240.699V240.642C211.654 239.941 211.462 239.397 211.079 239.009C210.7 238.62 210.125 238.426 209.353 238.426C208.553 238.426 207.925 238.601 207.471 238.952C207.016 239.302 206.697 239.676 206.512 240.074L204.921 239.506C205.205 238.843 205.584 238.327 206.058 237.957C206.536 237.583 207.057 237.323 207.62 237.176C208.188 237.025 208.747 236.949 209.296 236.949C209.647 236.949 210.049 236.991 210.504 237.077C210.963 237.157 211.406 237.325 211.832 237.581C212.263 237.837 212.62 238.223 212.904 238.739C213.188 239.255 213.33 239.946 213.33 240.812V248H211.654V246.523H211.569C211.455 246.759 211.266 247.013 211.001 247.283C210.736 247.553 210.383 247.782 209.942 247.972C209.502 248.161 208.965 248.256 208.33 248.256ZM208.586 246.75C209.249 246.75 209.808 246.62 210.262 246.359C210.721 246.099 211.067 245.763 211.299 245.351C211.536 244.939 211.654 244.506 211.654 244.051V242.517C211.583 242.602 211.427 242.68 211.185 242.751C210.949 242.818 210.674 242.877 210.362 242.929C210.054 242.976 209.753 243.019 209.46 243.057C209.171 243.09 208.936 243.118 208.756 243.142C208.321 243.199 207.914 243.291 207.535 243.419C207.161 243.542 206.858 243.729 206.626 243.98C206.398 244.226 206.285 244.562 206.285 244.989C206.285 245.571 206.5 246.011 206.931 246.31C207.367 246.603 207.918 246.75 208.586 246.75ZM218.066 241.438V248H216.39V237.091H218.009V238.795H218.151C218.407 238.241 218.795 237.796 219.316 237.46C219.837 237.119 220.509 236.949 221.333 236.949C222.071 236.949 222.718 237.1 223.272 237.403C223.826 237.702 224.257 238.156 224.564 238.767C224.872 239.373 225.026 240.14 225.026 241.068V248H223.35V241.182C223.35 240.325 223.127 239.657 222.682 239.179C222.237 238.696 221.626 238.455 220.85 238.455C220.315 238.455 219.837 238.571 219.415 238.803C218.998 239.035 218.669 239.373 218.428 239.818C218.186 240.263 218.066 240.803 218.066 241.438ZM232.208 248.227C231.299 248.227 230.496 247.998 229.8 247.538C229.104 247.074 228.56 246.421 228.167 245.578C227.774 244.731 227.577 243.729 227.577 242.574C227.577 241.428 227.774 240.434 228.167 239.591C228.56 238.748 229.107 238.097 229.808 237.638C230.508 237.179 231.318 236.949 232.237 236.949C232.947 236.949 233.508 237.067 233.92 237.304C234.336 237.536 234.654 237.801 234.871 238.099C235.094 238.393 235.267 238.634 235.39 238.824H235.532V233.455H237.208V248H235.589V246.324H235.39C235.267 246.523 235.092 246.774 234.864 247.077C234.637 247.375 234.313 247.643 233.891 247.879C233.47 248.111 232.909 248.227 232.208 248.227ZM232.435 246.722C233.108 246.722 233.676 246.546 234.14 246.196C234.604 245.841 234.957 245.351 235.198 244.726C235.44 244.096 235.56 243.369 235.56 242.545C235.56 241.731 235.442 241.018 235.205 240.408C234.969 239.792 234.618 239.314 234.154 238.973C233.69 238.627 233.117 238.455 232.435 238.455C231.725 238.455 231.133 238.637 230.66 239.001C230.191 239.361 229.838 239.851 229.602 240.472C229.37 241.087 229.254 241.778 229.254 242.545C229.254 243.322 229.372 244.027 229.609 244.662C229.85 245.292 230.205 245.794 230.674 246.168C231.147 246.537 231.735 246.722 232.435 246.722ZM247.215 252.091C246.931 252.091 246.678 252.067 246.455 252.02C246.233 251.977 246.079 251.935 245.994 251.892L246.42 250.415C246.827 250.519 247.187 250.557 247.499 250.528C247.812 250.5 248.089 250.36 248.33 250.109C248.576 249.863 248.801 249.463 249.005 248.909L249.317 248.057L245.283 237.091H247.102L250.113 245.784H250.227L253.238 237.091H255.056L250.425 249.591C250.217 250.154 249.959 250.621 249.651 250.99C249.344 251.364 248.986 251.641 248.579 251.821C248.176 252.001 247.722 252.091 247.215 252.091ZM261.31 248.227C260.325 248.227 259.461 247.993 258.717 247.524C257.979 247.055 257.401 246.4 256.984 245.557C256.572 244.714 256.366 243.729 256.366 242.602C256.366 241.466 256.572 240.474 256.984 239.626C257.401 238.779 257.979 238.121 258.717 237.652C259.461 237.183 260.325 236.949 261.31 236.949C262.295 236.949 263.156 237.183 263.895 237.652C264.638 238.121 265.216 238.779 265.628 239.626C266.045 240.474 266.253 241.466 266.253 242.602C266.253 243.729 266.045 244.714 265.628 245.557C265.216 246.4 264.638 247.055 263.895 247.524C263.156 247.993 262.295 248.227 261.31 248.227ZM261.31 246.722C262.058 246.722 262.673 246.53 263.156 246.146C263.639 245.763 263.997 245.259 264.229 244.634C264.461 244.009 264.577 243.331 264.577 242.602C264.577 241.873 264.461 241.194 264.229 240.564C263.997 239.934 263.639 239.425 263.156 239.037C262.673 238.649 262.058 238.455 261.31 238.455C260.562 238.455 259.946 238.649 259.463 239.037C258.98 239.425 258.623 239.934 258.391 240.564C258.159 241.194 258.043 241.873 258.043 242.602C258.043 243.331 258.159 244.009 258.391 244.634C258.623 245.259 258.98 245.763 259.463 246.146C259.946 246.53 260.562 246.722 261.31 246.722ZM275.686 243.54V237.091H277.363V248H275.686V246.153H275.573C275.317 246.707 274.919 247.179 274.38 247.567C273.84 247.95 273.158 248.142 272.334 248.142C271.652 248.142 271.046 247.993 270.516 247.695C269.986 247.392 269.569 246.937 269.266 246.331C268.963 245.72 268.811 244.951 268.811 244.023V237.091H270.488V243.909C270.488 244.705 270.71 245.339 271.155 245.812C271.605 246.286 272.178 246.523 272.874 246.523C273.291 246.523 273.714 246.416 274.145 246.203C274.581 245.99 274.945 245.663 275.239 245.223C275.537 244.783 275.686 244.222 275.686 243.54ZM282.203 233.455V234.733C282.203 235.121 282.132 235.536 281.99 235.976C281.852 236.411 281.649 236.835 281.379 237.247C281.114 237.654 280.792 238.009 280.413 238.312L279.504 237.574C279.802 237.148 280.06 236.705 280.278 236.246C280.501 235.782 280.612 235.287 280.612 234.761V233.455H282.203ZM286.093 233.455V248H284.417V233.455H286.093ZM290.839 233.455V248H289.163V233.455H290.839ZM303.938 252.318C303.128 252.318 302.432 252.214 301.849 252.006C301.267 251.802 300.782 251.532 300.393 251.196C300.01 250.865 299.705 250.509 299.477 250.131L300.812 249.193C300.964 249.392 301.156 249.619 301.388 249.875C301.62 250.135 301.937 250.36 302.339 250.55C302.747 250.744 303.279 250.841 303.938 250.841C304.818 250.841 305.545 250.628 306.118 250.202C306.691 249.776 306.977 249.108 306.977 248.199V245.983H306.835C306.712 246.182 306.537 246.428 306.31 246.722C306.087 247.01 305.765 247.268 305.344 247.496C304.927 247.718 304.364 247.83 303.653 247.83C302.773 247.83 301.982 247.621 301.281 247.205C300.585 246.788 300.034 246.182 299.626 245.386C299.224 244.591 299.023 243.625 299.023 242.489C299.023 241.371 299.219 240.398 299.612 239.57C300.005 238.736 300.552 238.092 301.253 237.638C301.954 237.179 302.763 236.949 303.682 236.949C304.392 236.949 304.955 237.067 305.372 237.304C305.794 237.536 306.116 237.801 306.338 238.099C306.565 238.393 306.741 238.634 306.864 238.824H307.034V237.091H308.653V248.312C308.653 249.25 308.44 250.012 308.014 250.599C307.593 251.191 307.025 251.625 306.31 251.899C305.599 252.179 304.809 252.318 303.938 252.318ZM303.881 246.324C304.553 246.324 305.121 246.17 305.585 245.862C306.049 245.554 306.402 245.112 306.643 244.534C306.885 243.956 307.006 243.265 307.006 242.46C307.006 241.674 306.887 240.981 306.651 240.379C306.414 239.778 306.063 239.307 305.599 238.966C305.135 238.625 304.563 238.455 303.881 238.455C303.17 238.455 302.579 238.634 302.105 238.994C301.636 239.354 301.284 239.837 301.047 240.443C300.815 241.049 300.699 241.722 300.699 242.46C300.699 243.218 300.817 243.888 301.054 244.47C301.295 245.048 301.651 245.502 302.119 245.834C302.593 246.161 303.18 246.324 303.881 246.324ZM316.295 248.227C315.244 248.227 314.338 247.995 313.575 247.531C312.818 247.062 312.233 246.409 311.821 245.571C311.414 244.728 311.21 243.748 311.21 242.631C311.21 241.513 311.414 240.528 311.821 239.676C312.233 238.819 312.806 238.152 313.54 237.673C314.278 237.19 315.14 236.949 316.125 236.949C316.693 236.949 317.254 237.044 317.808 237.233C318.362 237.422 318.866 237.73 319.321 238.156C319.776 238.578 320.138 239.136 320.408 239.832C320.678 240.528 320.812 241.385 320.812 242.403V243.114H312.403V241.665H319.108C319.108 241.049 318.985 240.5 318.739 240.017C318.497 239.534 318.152 239.153 317.702 238.874C317.257 238.594 316.731 238.455 316.125 238.455C315.457 238.455 314.88 238.62 314.392 238.952C313.909 239.278 313.537 239.705 313.277 240.23C313.017 240.756 312.886 241.319 312.886 241.92V242.886C312.886 243.71 313.028 244.409 313.312 244.982C313.601 245.55 314.001 245.983 314.513 246.281C315.024 246.575 315.618 246.722 316.295 246.722C316.736 246.722 317.134 246.66 317.489 246.537C317.848 246.409 318.159 246.22 318.419 245.969C318.679 245.713 318.881 245.396 319.023 245.017L320.642 245.472C320.472 246.021 320.185 246.504 319.783 246.92C319.38 247.332 318.883 247.654 318.291 247.886C317.699 248.114 317.034 248.227 316.295 248.227ZM328.107 237.091V238.511H322.453V237.091H328.107ZM324.101 234.477H325.777V244.875C325.777 245.348 325.846 245.704 325.983 245.94C326.125 246.172 326.305 246.329 326.523 246.409C326.745 246.485 326.98 246.523 327.226 246.523C327.411 246.523 327.562 246.513 327.68 246.494C327.799 246.471 327.893 246.452 327.964 246.438L328.305 247.943C328.192 247.986 328.033 248.028 327.83 248.071C327.626 248.118 327.368 248.142 327.055 248.142C326.582 248.142 326.118 248.04 325.663 247.837C325.214 247.633 324.839 247.323 324.541 246.906C324.248 246.49 324.101 245.964 324.101 245.33V234.477ZM339.463 248.256C338.772 248.256 338.144 248.125 337.581 247.865C337.018 247.6 336.57 247.219 336.239 246.722C335.907 246.22 335.741 245.614 335.741 244.903C335.741 244.278 335.865 243.772 336.111 243.384C336.357 242.991 336.686 242.683 337.098 242.46C337.51 242.238 337.964 242.072 338.462 241.963C338.964 241.849 339.468 241.759 339.974 241.693C340.637 241.608 341.175 241.544 341.587 241.501C342.003 241.454 342.306 241.376 342.496 241.267C342.69 241.158 342.787 240.969 342.787 240.699V240.642C342.787 239.941 342.595 239.397 342.212 239.009C341.833 238.62 341.258 238.426 340.486 238.426C339.686 238.426 339.058 238.601 338.604 238.952C338.149 239.302 337.83 239.676 337.645 240.074L336.054 239.506C336.338 238.843 336.717 238.327 337.19 237.957C337.669 237.583 338.189 237.323 338.753 237.176C339.321 237.025 339.88 236.949 340.429 236.949C340.779 236.949 341.182 236.991 341.636 237.077C342.096 237.157 342.538 237.325 342.964 237.581C343.395 237.837 343.753 238.223 344.037 238.739C344.321 239.255 344.463 239.946 344.463 240.812V248H342.787V246.523H342.702C342.588 246.759 342.399 247.013 342.134 247.283C341.868 247.553 341.516 247.782 341.075 247.972C340.635 248.161 340.098 248.256 339.463 248.256ZM339.719 246.75C340.382 246.75 340.94 246.62 341.395 246.359C341.854 246.099 342.2 245.763 342.432 245.351C342.669 244.939 342.787 244.506 342.787 244.051V242.517C342.716 242.602 342.56 242.68 342.318 242.751C342.081 242.818 341.807 242.877 341.494 242.929C341.187 242.976 340.886 243.019 340.592 243.057C340.304 243.09 340.069 243.118 339.889 243.142C339.454 243.199 339.046 243.291 338.668 243.419C338.294 243.542 337.991 243.729 337.759 243.98C337.531 244.226 337.418 244.562 337.418 244.989C337.418 245.571 337.633 246.011 338.064 246.31C338.5 246.603 339.051 246.75 339.719 246.75ZM358.005 237.091V238.511H352.125V237.091H358.005ZM353.886 248V235.585C353.886 234.96 354.033 234.439 354.326 234.023C354.62 233.606 355.001 233.294 355.47 233.085C355.939 232.877 356.433 232.773 356.954 232.773C357.366 232.773 357.702 232.806 357.963 232.872C358.223 232.938 358.417 233 358.545 233.057L358.062 234.506C357.977 234.477 357.859 234.442 357.707 234.399C357.56 234.357 357.366 234.335 357.125 234.335C356.571 234.335 356.171 234.475 355.924 234.754C355.683 235.034 355.562 235.443 355.562 235.983V248H353.886ZM360.354 248V237.091H361.974V238.739H362.087C362.286 238.199 362.646 237.761 363.167 237.425C363.688 237.089 364.275 236.92 364.928 236.92C365.051 236.92 365.205 236.923 365.39 236.928C365.575 236.932 365.714 236.939 365.809 236.949V238.653C365.752 238.639 365.622 238.618 365.418 238.589C365.219 238.556 365.009 238.54 364.786 238.54C364.256 238.54 363.782 238.651 363.366 238.874C362.954 239.091 362.627 239.394 362.386 239.783C362.149 240.166 362.031 240.604 362.031 241.097V248H360.354ZM372.038 248.227C370.987 248.227 370.08 247.995 369.317 247.531C368.56 247.062 367.975 246.409 367.563 245.571C367.156 244.728 366.952 243.748 366.952 242.631C366.952 241.513 367.156 240.528 367.563 239.676C367.975 238.819 368.548 238.152 369.282 237.673C370.021 237.19 370.882 236.949 371.867 236.949C372.435 236.949 372.996 237.044 373.55 237.233C374.104 237.422 374.609 237.73 375.063 238.156C375.518 238.578 375.88 239.136 376.15 239.832C376.42 240.528 376.555 241.385 376.555 242.403V243.114H368.146V241.665H374.85C374.85 241.049 374.727 240.5 374.481 240.017C374.239 239.534 373.894 239.153 373.444 238.874C372.999 238.594 372.473 238.455 371.867 238.455C371.2 238.455 370.622 238.62 370.134 238.952C369.651 239.278 369.28 239.705 369.019 240.23C368.759 240.756 368.629 241.319 368.629 241.92V242.886C368.629 243.71 368.771 244.409 369.055 244.982C369.344 245.55 369.744 245.983 370.255 246.281C370.766 246.575 371.361 246.722 372.038 246.722C372.478 246.722 372.876 246.66 373.231 246.537C373.591 246.409 373.901 246.22 374.161 245.969C374.422 245.713 374.623 245.396 374.765 245.017L376.384 245.472C376.214 246.021 375.927 246.504 375.525 246.92C375.122 247.332 374.625 247.654 374.033 247.886C373.442 248.114 372.776 248.227 372.038 248.227ZM383.678 248.227C382.627 248.227 381.72 247.995 380.958 247.531C380.201 247.062 379.616 246.409 379.204 245.571C378.797 244.728 378.593 243.748 378.593 242.631C378.593 241.513 378.797 240.528 379.204 239.676C379.616 238.819 380.189 238.152 380.923 237.673C381.661 237.19 382.523 236.949 383.508 236.949C384.076 236.949 384.637 237.044 385.191 237.233C385.745 237.422 386.249 237.73 386.704 238.156C387.158 238.578 387.521 239.136 387.79 239.832C388.06 240.528 388.195 241.385 388.195 242.403V243.114H379.786V241.665H386.491C386.491 241.049 386.368 240.5 386.121 240.017C385.88 239.534 385.534 239.153 385.085 238.874C384.639 238.594 384.114 238.455 383.508 238.455C382.84 238.455 382.263 238.62 381.775 238.952C381.292 239.278 380.92 239.705 380.66 240.23C380.399 240.756 380.269 241.319 380.269 241.92V242.886C380.269 243.71 380.411 244.409 380.695 244.982C380.984 245.55 381.384 245.983 381.896 246.281C382.407 246.575 383.001 246.722 383.678 246.722C384.119 246.722 384.516 246.66 384.871 246.537C385.231 246.409 385.541 246.22 385.802 245.969C386.062 245.713 386.263 245.396 386.406 245.017L388.025 245.472C387.854 246.021 387.568 246.504 387.165 246.92C386.763 247.332 386.266 247.654 385.674 247.886C385.082 248.114 384.417 248.227 383.678 248.227ZM408.131 233.455V248H406.427L398.501 236.58H398.359V248H396.597V233.455H398.302L406.256 244.903H406.398V233.455H408.131ZM411.656 248V233.455H420.377V235.017H413.417V239.932H419.724V241.494H413.417V248H411.656ZM422.599 235.017V233.455H433.508V235.017H428.934V248H427.173V235.017H422.599ZM444.096 248L440.772 237.091H442.533L444.891 245.443H445.005L447.334 237.091H449.124L451.425 245.415H451.539L453.897 237.091H455.658L452.334 248H450.686L448.3 239.619H448.13L445.743 248H444.096ZM459.55 241.438V248H457.874V233.455H459.55V238.795H459.692C459.948 238.232 460.331 237.785 460.843 237.453C461.359 237.117 462.045 236.949 462.902 236.949C463.646 236.949 464.297 237.098 464.855 237.396C465.414 237.69 465.847 238.142 466.155 238.753C466.468 239.359 466.624 240.131 466.624 241.068V248H464.948V241.182C464.948 240.315 464.723 239.645 464.273 239.172C463.828 238.694 463.21 238.455 462.419 238.455C461.87 238.455 461.378 238.571 460.942 238.803C460.511 239.035 460.17 239.373 459.919 239.818C459.673 240.263 459.55 240.803 459.55 241.438ZM474.264 248.227C473.213 248.227 472.306 247.995 471.544 247.531C470.786 247.062 470.202 246.409 469.79 245.571C469.383 244.728 469.179 243.748 469.179 242.631C469.179 241.513 469.383 240.528 469.79 239.676C470.202 238.819 470.775 238.152 471.509 237.673C472.247 237.19 473.109 236.949 474.094 236.949C474.662 236.949 475.223 237.044 475.777 237.233C476.331 237.422 476.835 237.73 477.29 238.156C477.744 238.578 478.107 239.136 478.376 239.832C478.646 240.528 478.781 241.385 478.781 242.403V243.114H470.372V241.665H477.077C477.077 241.049 476.954 240.5 476.707 240.017C476.466 239.534 476.12 239.153 475.67 238.874C475.225 238.594 474.7 238.455 474.094 238.455C473.426 238.455 472.848 238.62 472.361 238.952C471.878 239.278 471.506 239.705 471.246 240.23C470.985 240.756 470.855 241.319 470.855 241.92V242.886C470.855 243.71 470.997 244.409 471.281 244.982C471.57 245.55 471.97 245.983 472.482 246.281C472.993 246.575 473.587 246.722 474.264 246.722C474.705 246.722 475.102 246.66 475.457 246.537C475.817 246.409 476.127 246.22 476.388 245.969C476.648 245.713 476.849 245.396 476.991 245.017L478.611 245.472C478.44 246.021 478.154 246.504 477.751 246.92C477.349 247.332 476.852 247.654 476.26 247.886C475.668 248.114 475.003 248.227 474.264 248.227ZM483.007 241.438V248H481.331V237.091H482.95V238.795H483.092C483.348 238.241 483.736 237.796 484.257 237.46C484.778 237.119 485.45 236.949 486.274 236.949C487.013 236.949 487.659 237.1 488.213 237.403C488.767 237.702 489.198 238.156 489.506 238.767C489.813 239.373 489.967 240.14 489.967 241.068V248H488.291V241.182C488.291 240.325 488.069 239.657 487.624 239.179C487.179 238.696 486.568 238.455 485.791 238.455C485.256 238.455 484.778 238.571 484.357 238.803C483.94 239.035 483.611 239.373 483.369 239.818C483.128 240.263 483.007 240.803 483.007 241.438ZM501.127 248L497.803 237.091H499.564L501.922 245.443H502.036L504.365 237.091H506.155L508.456 245.415H508.57L510.928 237.091H512.689L509.365 248H507.718L505.331 239.619H505.161L502.775 248H501.127ZM519.108 248.227C518.057 248.227 517.15 247.995 516.388 247.531C515.63 247.062 515.045 246.409 514.634 245.571C514.226 244.728 514.023 243.748 514.023 242.631C514.023 241.513 514.226 240.528 514.634 239.676C515.045 238.819 515.618 238.152 516.352 237.673C517.091 237.19 517.953 236.949 518.938 236.949C519.506 236.949 520.067 237.044 520.621 237.233C521.175 237.422 521.679 237.73 522.134 238.156C522.588 238.578 522.95 239.136 523.22 239.832C523.49 240.528 523.625 241.385 523.625 242.403V243.114H515.216V241.665H521.92C521.92 241.049 521.797 240.5 521.551 240.017C521.31 239.534 520.964 239.153 520.514 238.874C520.069 238.594 519.544 238.455 518.938 238.455C518.27 238.455 517.692 238.62 517.205 238.952C516.722 239.278 516.35 239.705 516.089 240.23C515.829 240.756 515.699 241.319 515.699 241.92V242.886C515.699 243.71 515.841 244.409 516.125 244.982C516.414 245.55 516.814 245.983 517.325 246.281C517.837 246.575 518.431 246.722 519.108 246.722C519.548 246.722 519.946 246.66 520.301 246.537C520.661 246.409 520.971 246.22 521.232 245.969C521.492 245.713 521.693 245.396 521.835 245.017L523.455 245.472C523.284 246.021 522.998 246.504 522.595 246.92C522.193 247.332 521.696 247.654 521.104 247.886C520.512 248.114 519.847 248.227 519.108 248.227ZM533.476 233.455V248H531.8V233.455H533.476ZM539.756 248.256C539.065 248.256 538.437 248.125 537.874 247.865C537.31 247.6 536.863 247.219 536.532 246.722C536.2 246.22 536.034 245.614 536.034 244.903C536.034 244.278 536.158 243.772 536.404 243.384C536.65 242.991 536.979 242.683 537.391 242.46C537.803 242.238 538.257 242.072 538.755 241.963C539.257 241.849 539.761 241.759 540.267 241.693C540.93 241.608 541.468 241.544 541.88 241.501C542.296 241.454 542.599 241.376 542.789 241.267C542.983 241.158 543.08 240.969 543.08 240.699V240.642C543.08 239.941 542.888 239.397 542.505 239.009C542.126 238.62 541.551 238.426 540.779 238.426C539.979 238.426 539.351 238.601 538.897 238.952C538.442 239.302 538.123 239.676 537.938 240.074L536.347 239.506C536.631 238.843 537.01 238.327 537.483 237.957C537.962 237.583 538.482 237.323 539.046 237.176C539.614 237.025 540.173 236.949 540.722 236.949C541.072 236.949 541.475 236.991 541.929 237.077C542.389 237.157 542.831 237.325 543.257 237.581C543.688 237.837 544.046 238.223 544.33 238.739C544.614 239.255 544.756 239.946 544.756 240.812V248H543.08V246.523H542.995C542.881 246.759 542.692 247.013 542.426 247.283C542.161 247.553 541.809 247.782 541.368 247.972C540.928 248.161 540.391 248.256 539.756 248.256ZM540.012 246.75C540.675 246.75 541.233 246.62 541.688 246.359C542.147 246.099 542.493 245.763 542.725 245.351C542.962 244.939 543.08 244.506 543.08 244.051V242.517C543.009 242.602 542.853 242.68 542.611 242.751C542.374 242.818 542.1 242.877 541.787 242.929C541.48 242.976 541.179 243.019 540.885 243.057C540.596 243.09 540.362 243.118 540.182 243.142C539.747 243.199 539.339 243.291 538.961 243.419C538.587 243.542 538.283 243.729 538.051 243.98C537.824 244.226 537.711 244.562 537.711 244.989C537.711 245.571 537.926 246.011 538.357 246.31C538.792 246.603 539.344 246.75 540.012 246.75ZM554.69 243.54V237.091H556.366V248H554.69V246.153H554.577C554.321 246.707 553.923 247.179 553.384 247.567C552.844 247.95 552.162 248.142 551.338 248.142C550.656 248.142 550.05 247.993 549.52 247.695C548.99 247.392 548.573 246.937 548.27 246.331C547.967 245.72 547.815 244.951 547.815 244.023V237.091H549.491V243.909C549.491 244.705 549.714 245.339 550.159 245.812C550.609 246.286 551.182 246.523 551.878 246.523C552.295 246.523 552.718 246.416 553.149 246.203C553.585 245.99 553.949 245.663 554.243 245.223C554.541 244.783 554.69 244.222 554.69 243.54ZM561.113 241.438V248H559.436V237.091H561.056V238.795H561.198C561.453 238.241 561.842 237.796 562.363 237.46C562.883 237.119 563.556 236.949 564.38 236.949C565.118 236.949 565.765 237.1 566.319 237.403C566.873 237.702 567.303 238.156 567.611 238.767C567.919 239.373 568.073 240.14 568.073 241.068V248H566.397V241.182C566.397 240.325 566.174 239.657 565.729 239.179C565.284 238.696 564.673 238.455 563.897 238.455C563.362 238.455 562.883 238.571 562.462 238.803C562.045 239.035 561.716 239.373 561.475 239.818C561.233 240.263 561.113 240.803 561.113 241.438ZM575.567 248.227C574.545 248.227 573.664 247.986 572.925 247.503C572.187 247.02 571.619 246.355 571.221 245.507C570.823 244.66 570.624 243.691 570.624 242.602C570.624 241.494 570.828 240.517 571.235 239.669C571.647 238.817 572.22 238.152 572.954 237.673C573.692 237.19 574.554 236.949 575.539 236.949C576.306 236.949 576.997 237.091 577.613 237.375C578.228 237.659 578.733 238.057 579.126 238.568C579.519 239.08 579.763 239.676 579.857 240.358H578.181C578.053 239.861 577.769 239.42 577.329 239.037C576.893 238.649 576.306 238.455 575.567 238.455C574.914 238.455 574.341 238.625 573.849 238.966C573.361 239.302 572.98 239.778 572.705 240.393C572.435 241.004 572.3 241.722 572.3 242.545C572.3 243.388 572.433 244.122 572.698 244.747C572.968 245.372 573.347 245.857 573.835 246.203C574.327 246.549 574.905 246.722 575.567 246.722C576.003 246.722 576.398 246.646 576.754 246.494C577.109 246.343 577.409 246.125 577.656 245.841C577.902 245.557 578.077 245.216 578.181 244.818H579.857C579.763 245.462 579.528 246.042 579.154 246.558C578.785 247.07 578.295 247.477 577.684 247.78C577.078 248.078 576.372 248.227 575.567 248.227ZM583.984 241.438V248H582.308V233.455H583.984V238.795H584.126C584.381 238.232 584.765 237.785 585.276 237.453C585.792 237.117 586.479 236.949 587.336 236.949C588.079 236.949 588.73 237.098 589.289 237.396C589.848 237.69 590.281 238.142 590.589 238.753C590.901 239.359 591.058 240.131 591.058 241.068V248H589.381V241.182C589.381 240.315 589.156 239.645 588.707 239.172C588.262 238.694 587.644 238.455 586.853 238.455C586.304 238.455 585.811 238.571 585.376 238.803C584.945 239.035 584.604 239.373 584.353 239.818C584.107 240.263 583.984 240.803 583.984 241.438ZM595.346 248.114C594.995 248.114 594.694 247.988 594.444 247.737C594.193 247.486 594.067 247.186 594.067 246.835C594.067 246.485 594.193 246.184 594.444 245.933C594.694 245.682 594.995 245.557 595.346 245.557C595.696 245.557 595.997 245.682 596.248 245.933C596.498 246.184 596.624 246.485 596.624 246.835C596.624 247.067 596.565 247.28 596.446 247.474C596.333 247.669 596.179 247.825 595.985 247.943C595.795 248.057 595.582 248.114 595.346 248.114Z" fill="#111111"/>
</g>
<defs>
<filter id="filter0_d_11_1584" x="0" y="0" width="1288" height="328" filterUnits="userSpaceOnUse" color-interpolation-filters="sRGB">
<feFlood flood-opacity="0" result="BackgroundImageFix"/>
<feColorMatrix in="SourceAlpha" type="matrix" values="0 0 0 0 0 0 0 0 0 0 0 0 0 0 0 0 0 0 127 0" result="hardAlpha"/>
<feOffset dy="4"/>
<feGaussianBlur stdDeviation="2"/>
<feComposite in2="hardAlpha" operator="out"/>
<feColorMatrix type="matrix" values="0 0 0 0 0 0 0 0 0 0 0 0 0 0 0 0 0 0 0.25 0"/>
<feBlend mode="normal" in2="BackgroundImageFix" result="effect1_dropShadow_11_1584"/>
<feBlend mode="normal" in="SourceGraphic" in2="effect1_dropShadow_11_1584" result="shape"/>
</filter>
<filter id="filter1_f_11_1584" x="-390" y="-540" width="1577" height="1577" filterUnits="userSpaceOnUse" color-interpolation-filters="sRGB">
<feFlood flood-opacity="0" result="BackgroundImageFix"/>
<feBlend mode="normal" in="SourceGraphic" in2="BackgroundImageFix" result="shape"/>
<feGaussianBlur stdDeviation="146" result="effect1_foregroundBlur_11_1584"/>
</filter>
<filter id="filter2_f_11_1584" x="620" y="-393" width="1075" height="1075" filterUnits="userSpaceOnUse" color-interpolation-filters="sRGB">
<feFlood flood-opacity="0" result="BackgroundImageFix"/>
<feBlend mode="normal" in="SourceGraphic" in2="BackgroundImageFix" result="shape"/>
<feGaussianBlur stdDeviation="146" result="effect1_foregroundBlur_11_1584"/>
</filter>
<filter id="filter3_f_11_1584" x="6" y="-407" width="1577" height="1577" filterUnits="userSpaceOnUse" color-interpolation-filters="sRGB">
<feFlood flood-opacity="0" result="BackgroundImageFix"/>
<feBlend mode="normal" in="SourceGraphic" in2="BackgroundImageFix" result="shape"/>
<feGaussianBlur stdDeviation="146" result="effect1_foregroundBlur_11_1584"/>
</filter>
<filter id="filter4_f_11_1584" x="-395" y="-374" width="910" height="910" filterUnits="userSpaceOnUse" color-interpolation-filters="sRGB">
<feFlood flood-opacity="0" result="BackgroundImageFix"/>
<feBlend mode="normal" in="SourceGraphic" in2="BackgroundImageFix" result="shape"/>
<feGaussianBlur stdDeviation="146" result="effect1_foregroundBlur_11_1584"/>
</filter>
</defs>
</svg>
